# AST/ASF file generated using VICON BodyLanguage
# -----------------------------------------------
:version 1.10
:name VICON
:units
  mass 1.0
  length 0.45
  angle deg
:documentation
   .ast/.asf automatically generated from VICON data using
   VICON BodyBuilder and BodyLanguage model FoxedUp or BRILLIANT.MOD
:root
   order TX TY TZ RX RY RZ
   axis XYZ
   position 0 0 0  
   orientation 0 0 0 
:bonedata
  begin
     id 1 
     name lhipjoint
     direction 0.588788 -0.725889 0.355548 
     length 2.37778 
     axis 0 0 0  XYZ
  end
  begin
     id 2 
     name lfemur
     direction 0.34202 -0.939693 0  
     length 6.86393  
     axis 0 0 20  XYZ
    dof rx ry rz
    limits (-160.0 20.0)
           (-70.0 70.0)
           (-60.0 70.0)
  end
  begin
     id 3 
     name ltibia
     direction 0.34202 -0.939693 0   
     length 7.32851   
     axis 0 0 20   XYZ
    dof rx
    limits (-10.0 170.0)
  end
  begin
     id 4 
     name lfoot
     direction 0.0626533 -0.172138 0.983078   
     length 1.98929   
     axis -90 7.62852e-016 20   XYZ
    dof rx rz
    limits (-45.0 90.0)
           (-70.0 20.0)
  end
  begin
     id 5 
     name ltoes
     direction 1.53647e-011 -4.21734e-011 1   
     length 1.00479   
     axis -90 7.62852e-016 20   XYZ
    dof rx
    limits (-90.0 20.0)
  end
  begin
     id 6 
     name rhipjoint
     direction -0.59141 -0.724168 0.354705   
     length 2.38343  
     axis 0 0 0  XYZ 
  end
  begin
     id 7 
     name rfemur
     direction -0.34202 -0.939693 0   
     length 6.95589   
     axis 0 0 -20   XYZ
    dof rx ry rz
    limits (-160.0 20.0)
           (-70.0 70.0)
           (-70.0 60.0)
  end
  begin
     id 8 
     name rtibia
     direction -0.34202 -0.939693 0   
     length 7.32327   
     axis 0 0 -20   XYZ
    dof rx
    limits (-10.0 170.0)
 end
 begin
     id 9 
     name rfoot
     direction -0.0660461 -0.18146 0.981178   
     length 1.85272  
     axis -90 -7.62852e-016 -20   XYZ
    dof rx rz
    limits (-45.0 90.0)
           (-20.0 70.0)
  end
  begin
     id 10 
     name rtoes
     direction -1.53586e-011 -4.21988e-011 1   
     length 0.93746   
     axis -90 -7.62852e-016 -20   XYZ
    dof rx
    limits (-90.0 20.0)
  end
  begin
     id 11 
     name lowerback
     direction -0.0107982 0.991059 0.13299   
     length 1.98691   
     axis 0 0 0   XYZ
    dof rx ry rz
    limits (-20.0 45.0)
           (-30.0 30.0)
           (-30.0 30.0)
  end
  begin
     id 12 
     name upperback
     direction 0.0076296 0.999916 0.0104576   
     length 1.99501   
     axis 0 0 0   XYZ
    dof rx ry rz
    limits (-20.0 45.0)
           (-30.0 30.0)
           (-30.0 30.0)
  end
  begin
     id 13 
     name thorax
     direction 0.01176 0.998615 -0.0512909   
     length 2.03144   
     axis 0 0 0   XYZ
    dof rx ry rz
    limits (-20.0 45.0)
           (-30.0 30.0)
           (-30.0 30.0)
  end
  begin
     id 14 
     name lowerneck
     direction -0.0171909 0.999644 0.0204011   
     length 1.71818   
     axis 0 0 0   XYZ
    dof rx ry rz
    limits (-20.0 45.0)
           (-30.0 30.0)
           (-30.0 30.0)
  end
  begin
     id 15 
     name upperneck
     direction 0.0250902 0.997482 -0.0663316   
     length 1.66199   
     axis 0 0 0   XYZ
    dof rx ry rz
    limits (-20.0 45.0)
           (-30.0 30.0)
           (-30.0 30.0)
  end
  begin
     id 16
     name head
     direction 0.00881535 0.99956 -0.0283365  
     length 1.81545  
     axis 0 0 0   XYZ
    dof rx ry rz
    limits (-20.0 45.0)
           (-30.0 30.0)
           (-30.0 30.0)
  end
  begin
     id 17 
     name lclavicle
     direction 0.840411 0.486876 -0.238035  
     length 3.30409  
     axis 0 0 0   XYZ
    dof ry rz
    limits (-20.0 10.0)
           (0.0 20.0)
  end
  begin
     id 18 
     name lhumerus
     direction 1 -4.48977e-011 -5.16239e-027   
     length 4.62672   
     axis 180 -30 -90   XYZ
    dof rx ry rz
    limits (-60.0 90.0)
           (-90.0 90.0)
           (-90.0 90.0)
  end
  begin
     id 19
     name lradius
     direction 1 -4.48977e-011 -8.71171e-027   
     length 3.11018   
     axis 180 -30 -90   XYZ
    dof rx
    limits (-10.0 170.0)
  end
  begin
     id 20
     name lwrist
     direction 1 -4.48912e-011 -1.03764e-026   
     length 1.55509   
     axis 9.09556e-015 90 90   XYZ
    dof ry
    limits (-180.0 0.0)
 end
  begin
     id 21 
     name lhand
     direction 1 -4.49072e-011 -2.07528e-026   
     length 0.743834   
     axis 1.3242e-014 90 90   XYZ
    dof rx rz
    limits (-90.0 90.0)
           (-45.0 45.0)
  end
  begin
     id 22 
     name lfingers
     direction 1 -4.48909e-011 -4.15056e-026   
     length 0.599698   
     axis 2.64841e-014 90 90   XYZ
    dof rx
    limits (0.0 90.0)
  end
  begin
     id 23
     name lthumb
     direction 0.707107 -6.35013e-011 0.707107   
     length 0.86105   
     axis -90 45 2.85299e-015   XYZ
    dof rx rz
    limits (-45.0 45.0)
           (-45.0 45.0)
  end
  begin
     id 24 
     name rclavicle
     direction -0.835208 0.500237 -0.228452   
     length 3.2716  
     axis 0 0 0   XYZ 
    dof ry rz
    limits (-10.0 20.0)
           (-20.0 0.0)
  end
  begin
     id 25 
     name rhumerus
     direction -1 -4.48978e-011 -5.1953e-028  
     length 4.55919   
     axis 180 30 90   XYZ
    dof rx ry rz
    limits (-90.0 60.0)
           (-90.0 90.0)
           (-90.0 90.0)
  end
  begin
     id 26 
     name rradius
     direction -1 -4.48961e-011 -5.99546e-027   
     length 3.22748   
     axis 180 30 90   XYZ
    dof rx
    limits (-10.0 170.0)
  end
  begin
     id 27 
     name rwrist
     direction -1 -4.48986e-011 -1.03764e-026   
     length 1.61374   
     axis 9.09556e-015 -90 -90   XYZ
    dof ry
    limits (-180.0 0.0)
  end
  begin
     id 28
     name rhand
     direction -1 -4.4899e-011 -2.07528e-026   
     length 0.700882   
     axis 1.3242e-014 -90 -90   XYZ
    dof rx rz
    limits (-90.0 90.0)
           (-45.0 45.0)
  end
  begin
     id 29
     name rfingers
     direction -1 -4.48991e-011 -4.15056e-026   
     length 0.565069   
     axis 2.64841e-014 -90 -90   XYZ
    dof rx
    limits (0.0 90.0)
  end
  begin
     id 30
     name rthumb
     direction -0.707107 -6.34804e-011 0.707107   
     length 0.811329   
     axis -90 -45 -2.85299e-015   XYZ
    dof rx rz
    limits (-45.0 45.0)
           (-45.0 45.0)
  end
:hierarchy
  begin
    root lhipjoint rhipjoint lowerback
    lhipjoint lfemur
    lfemur ltibia
    ltibia lfoot
    lfoot ltoes
    rhipjoint rfemur
    rfemur rtibia
    rtibia rfoot
    rfoot rtoes
    lowerback upperback
    upperback thorax
    thorax lowerneck lclavicle rclavicle
    lowerneck upperneck
    upperneck head
    lclavicle lhumerus
    lhumerus lradius
    lradius lwrist
    lwrist lhand lthumb
    lhand lfingers
    rclavicle rhumerus
    rhumerus rradius
    rradius rwrist
    rwrist rhand rthumb
    rhand rfingers
  end

#!OML:ASF F:\VICON\USERDATA\INSTALL\SteveWalk\SteveWalk.ASF
:FULLY-SPECIFIED
:DEGREES
16
root -0.738219 16.3927 -40.2834 17.6529 2.33958 -0.196379
lowerback -15.8187 -0.518373 1.7852
upperback -4.73574 -1.08837 2.657
thorax 3.85103 -0.527834 1.58179
lowerneck -4.58552 -2.16007 0.44277
upperneck 14.7647 -2.58061 -2.8121
head 5.14487 -1.4194 -1.09443
rclavicle -1.43622e-014 3.57812e-014
rhumerus -40.1726 -22.3042 -71.2772
rradius 25.5026
rwrist 1.38434
rhand -16.9 -35.6061
rfingers 7.12502
rthumb 9.33182 -65.3796
lclavicle -1.43622e-014 3.57812e-014
lhumerus -34.1257 2.90259 86.8742
lradius 28.5461
lwrist -7.17125
lhand -19.9603 -20.4238
lfingers 7.12502
lthumb 6.37814 9.46016
rfemur -35.8695 -0.81162 24.7046
rtibia 38.0825
rfoot -20.4354 2.18478
rtoes -14.0552
lfemur -38.4731 3.55831 -20.4996
ltibia 75.8658
lfoot 1.27322 -1.5851
ltoes -11.5786
17
root -0.729511 16.3986 -40.0924 18.0205 0.512067 -0.538253
lowerback -14.995 0.21871 1.97944
upperback -5.1281 -0.0998764 2.54792
thorax 2.97852 -0.0433471 1.53442
lowerneck -5.67679 -2.16481 0.635906
upperneck 15.859 -2.54825 -3.08181
head 5.66566 -1.42199 -1.2374
rclavicle -2.42269e-015 1.82882e-014
rhumerus -39.351 -19.9952 -73.2503
rradius 27.405
rwrist -1.01968
rhand -16.9727 -37.7426
rfingers 7.12502
rthumb 9.26172 -67.5192
lclavicle -2.42269e-015 1.82882e-014
lhumerus -34.3484 3.90953 86.4869
lradius 26.594
lwrist -8.76655
lhand -19.6806 -21.068
lfingers 7.12502
lthumb 6.64818 8.80768
rfemur -35.4448 0.132243 24.6807
rtibia 37.6887
rfoot -20.8425 3.0586
rtoes -14.1439
lfemur -40.4591 5.20278 -21.0322
ltibia 75.6405
lfoot 0.115883 -0.511347
ltoes -9.04787
18
root -0.753726 16.417 -39.8783 17.4423 1.98712 0.120016
lowerback -14.5788 -0.390503 1.20704
upperback -4.94844 -0.780517 2.46216
thorax 2.96269 -0.377944 1.7644
lowerneck -5.60934 -2.16923 0.713894
upperneck 15.9159 -2.55153 -3.14869
head 5.66953 -1.42345 -1.27118
rclavicle -2.62147e-015 -2.8625e-014
rhumerus -38.2461 -18.1931 -74.988
rradius 28.9758
rwrist -2.88972
rhand -16.9976 -38.1973
rfingers 7.12502
rthumb 9.23766 -67.9749
lclavicle -2.62147e-015 -2.8625e-014
lhumerus -34.6286 4.88861 86.0784
lradius 25.1303
lwrist -10.0114
lhand -19.6144 -21.2913
lfingers 7.12502
lthumb 6.71211 8.58232
rfemur -33.6442 -0.913837 24.4106
rtibia 37.3229
rfoot -21.5711 2.12654
rtoes -14.7683
lfemur -41.2001 3.95279 -21.2916
ltibia 74.9628
lfoot -0.829081 -0.141989
ltoes -5.79151
19
root -0.756136 16.4137 -39.6924 18.0891 0.968403 -0.0312474
lowerback -14.9181 -0.00755744 1.29948
upperback -5.21055 -0.28584 2.32608
thorax 2.85618 -0.133563 1.65327
lowerneck -5.12837 -2.15637 0.700451
upperneck 15.8531 -2.54756 -3.05627
head 5.56879 -1.41271 -1.23204
rclavicle -8.28684e-015 -7.95139e-016
rhumerus -37.4408 -16.5761 -76.4048
rradius 30.3541
rwrist -4.20269
rhand -17.6362 -38.6347
rfingers 7.12502
rthumb 8.62142 -68.4386
lclavicle -8.28684e-015 -7.95139e-016
lhumerus -35.3978 5.90342 85.4944
lradius 24.0562
lwrist -11.2093
lhand -19.5661 -20.9893
lfingers 7.12502
lthumb 6.75868 8.88286
rfemur -33.5101 -0.803213 24.4964
rtibia 36.8065
rfoot -21.971 3.18712
rtoes -13.422
lfemur -43.3693 4.94639 -21.7709
ltibia 74.1783
lfoot -1.61073 0.525024
ltoes -4.9854
20
root -0.725934 16.4575 -39.3918 17.0707 0.203201 -0.157814
lowerback -14.7794 0.32414 1.65265
upperback -4.94244 0.0999287 2.24712
thorax 3.05655 0.0557986 1.43677
lowerneck -4.78148 -2.13703 0.643089
upperneck 16.1616 -2.49751 -3.13575
head 5.606 -1.39647 -1.24347
rclavicle 1.07903e-014 1.27222e-014
rhumerus -37.1738 -14.6865 -77.4066
rradius 32.0558
rwrist -5.43277
rhand -19.1504 -39.498
rfingers 7.12502
rthumb 7.16 -69.3569
lclavicle 1.07903e-014 1.27222e-014
lhumerus -36.4299 7.07589 84.9597
lradius 22.7701
lwrist -12.5957
lhand -19.6544 -20.183
lfingers 7.12502
lthumb 6.67346 9.69185
rfemur -30.7418 -1.03674 24.4188
rtibia 36.2114
rfoot -23.0821 4.17242
rtoes -10.9084
lfemur -42.6155 5.50953 -22.046
ltibia 72.6445
lfoot -3.82597 1.29141
ltoes -3.22021
21
root -0.736411 16.4675 -39.1767 16.6343 1.23237 0.173422
lowerback -14.1492 -0.0379281 1.26304
upperback -5.06367 -0.297684 2.18135
thorax 2.59823 -0.140472 1.51797
lowerneck -4.57017 -2.12822 0.742999
upperneck 16.4143 -2.48375 -3.18421
head 5.64656 -1.38692 -1.27462
rclavicle -5.42309e-015 -2.38542e-015
rhumerus -36.924 -12.8376 -78.5721
rradius 34.1557
rwrist -7.03698
rhand -18.3035 -40.306
rfingers 7.12502
rthumb 7.97741 -70.1355
lclavicle -5.42309e-015 -2.38542e-015
lhumerus -37.4321 7.66021 84.4858
lradius 21.7664
lwrist -13.3532
lhand -19.2866 -19.1816
lfingers 7.12502
lthumb 7.02849 10.6817
rfemur -28.9674 -2.02619 24.3656
rtibia 35.7474
rfoot -23.5371 3.87228
rtoes -9.91095
lfemur -43.2551 4.59224 -22.2062
ltibia 71.1578
lfoot -5.95562 1.3072
ltoes -8.66108
22
root -0.742206 16.458 -38.9791 16.992 0.680591 0.0531905
lowerback -14.6554 0.181092 1.31015
upperback -5.13417 -0.0241708 2.09319
thorax 2.7907 -0.00521736 1.446
lowerneck -3.96056 -2.14019 0.680646
upperneck 16.2053 -2.51595 -3.06052
head 5.47876 -1.39318 -1.21624
rclavicle 1.32673e-014 -1.51076e-014
rhumerus -36.4478 -10.4614 -80.2171
rradius 36.3989
rwrist -10.8396
rhand -18.2845 -41.7932
rfingers 7.12502
rthumb 7.99574 -71.622
lclavicle 1.32673e-014 -1.51076e-014
lhumerus -38.4634 8.29259 83.9029
lradius 21.1636
lwrist -14.0304
lhand -18.2801 -19.2299
lfingers 7.12502
lthumb 8.00002 10.5987
rfemur -28.4486 -2.19509 24.5103
rtibia 35.2915
rfoot -23.6871 4.43851
rtoes -9.45845
lfemur -44.8161 5.11991 -22.4801
ltibia 69.602
lfoot -5.55347 1.53557
ltoes -4.42057
